# xmcd
#
# Track frame offsets:
#	150
#	17161
#	34137
#	46119
#	65720
#	82106
#	97236
#	119429
#	129752
#	150415
#
# Disc length: 2193 seconds
#
# Revision: 0
# Processed by: cddbd v1.5.1PL0 Copyright (c) Steve Scherf et al.
# Submitted via: dBpowerAMP V4.0
#
DISCID=7f088f0a
DTITLE=Jeff Bates and Southern Storm - Country's My Middle Name
DYEAR=1900
DGENRE=
TTITLE0=Country's My Middle Name
TTITLE1=Pull Me Out of the Water
TTITLE2=Crystal Clear
TTITLE3=Someone to Watch Over Me
TTITLE4=After All
TTITLE5=Change Of Pace
TTITLE6=Watching His Son Going Down
TTITLE7=I've Got A Woman
TTITLE8=Make Me Weak
TTITLE9=My Boot Scootin' Baby
EXTD=
EXTT0=
EXTT1=
EXTT2=
EXTT3=
EXTT4=
EXTT5=
EXTT6=
EXTT7=
EXTT8=
EXTT9=
PLAYORDER=
